# xmcd
#
# Track frame offsets: 
#        150
#        13435
#        27725
#        40784
#        56406
#        68549
#        82334
#        95610
#        107341
#        118929
#        132618
#        144372
#        156162
#        168411
#        181461
#        193763
#        205816
#        221217
#        234036
#        245987
#
# Disc length: 3448 seconds
#
# Revision: 0
# Processed by: cddbd v1.5.2PL0 Copyright (c) Steve Scherf et al.
# Submitted via: ExactAudioCopy v1.0b3
#
DISCID=2d0d7614
DTITLE=Gene Autry - Hold On Little Dogies, Hold On
DYEAR=2002
DGENRE=Western
TTITLE0=I'm Always Dreaming Of You (& Jimmy Long)  (1932)
TTITLE1=After 21 Years  (1934)
TTITLE2=Hold On Little Dogies, Hold On  (1935)
TTITLE3=Beautiful Texas  (1934)
TTITLE4=Why Don't You Come Back To Me  (1931)
TTITLE5=Answer To The Red River Valley (& Smiley Burnette)  (1935)
TTITLE6=Cradle Of My Dreams  (1932)
TTITLE7=Daddy and Home  (1929)
TTITLE8=When The Golde Leaves Are Falling  (1937)
TTITLE9=Gosh, I Miss You All The Time  (1933)
TTITLE10=Lamplighting In The Valley  (1933)
TTITLE11='leven Months In Leavenworth  (1934)
TTITLE12=Little Old Lady Waiting  (1934)
TTITLE13=Memories Of That Silver Haired Daddy  (1934)
TTITLE14=My Carolina Moutain Rose  (1932)
TTITLE15=Red River Lullaby  (1935)
TTITLE16=Don't Waste Your Tears On MeThat Silver Haired Mother Of Mine
TTITLE16=(& Jimmy Long)  (1935)
TTITLE17=That Silver Haired Mother Of Mine (& Jimmy Long)  (1935)
TTITLE18=Someday In Wyoming (& Smiley Burnette)  (1935)
TTITLE19=My Cross Eyed Gal (& Jimmy Long)  (1931)
EXTD=
EXTT0=
EXTT1=
EXTT2=
EXTT3=
EXTT4=
EXTT5=
EXTT6=
EXTT7=
EXTT8=
EXTT9=
EXTT10=
EXTT11=
EXTT12=
EXTT13=
EXTT14=
EXTT15=
EXTT16=
EXTT17=
EXTT18=
EXTT19=
PLAYORDER=
